<?xml version="1.0" standalone="no"?>
<!DOCTYPE svg PUBLIC "-//W3C//DTD SVG 20010904//EN"
 "http://www.w3.org/TR/2001/REC-SVG-20010904/DTD/svg10.dtd">
<svg version="1.0" xmlns="http://www.w3.org/2000/svg"
 width="749.000000pt" height="749.000000pt" viewBox="0 0 749.000000 749.000000"
 preserveAspectRatio="xMidYMid meet">
<metadata>
Created by potrace 1.14, written by Peter Selinger 2001-2017
</metadata>
<g transform="translate(0.000000,749.000000) scale(0.100000,-0.100000)"
fill="#000000" stroke="none">
<path d="M6780 7108 c-62 -30 -203 -175 -276 -283 -34 -49 -107 -164 -164
-255 -56 -91 -164 -262 -240 -380 -76 -118 -251 -412 -389 -653 -403 -701
-742 -1275 -1400 -2366 -255 -423 -384 -627 -465 -735 -151 -200 -249 -347
-327 -485 -80 -143 -123 -191 -171 -191 -54 0 -70 18 -79 91 -9 73 4 319 26
524 98 875 386 2323 566 2842 26 75 116 614 134 803 8 80 19 179 26 220 6 41
9 118 7 170 -4 86 -8 102 -41 168 -87 169 -164 263 -247 299 -19 8 -81 17
-138 20 l-103 6 -44 -47 c-76 -82 -127 -230 -144 -419 -13 -143 -41 -196 -203
-375 -64 -71 -215 -292 -330 -482 -254 -422 -782 -1340 -880 -1530 -131 -254
-269 -502 -445 -795 -66 -110 -150 -258 -188 -330 -94 -180 -189 -348 -240
-425 -29 -43 -47 -85 -55 -125 -16 -82 -83 -213 -145 -285 -101 -117 -297
-482 -459 -856 -118 -272 -134 -327 -117 -406 11 -53 18 -63 94 -134 112 -105
175 -146 235 -151 59 -5 52 -15 203 277 123 239 701 1320 977 1830 91 168 239
452 328 632 236 474 398 763 744 1330 161 263 221 341 243 318 21 -20 11 -176
-17 -272 -31 -107 -89 -398 -156 -788 -28 -162 -71 -412 -96 -555 -25 -143
-62 -352 -84 -465 -62 -332 -108 -830 -95 -1045 13 -219 62 -391 155 -542 103
-167 292 -284 441 -270 117 10 267 108 471 305 248 240 521 606 657 878 60
120 196 332 336 524 104 143 168 250 221 372 53 121 139 279 239 438 95 151
233 401 445 805 95 182 208 389 250 460 122 207 128 219 247 455 66 133 135
255 167 297 104 138 274 398 281 430 10 50 147 223 175 223 13 0 17 26 -35
-236 -67 -334 -147 -681 -210 -904 -65 -230 -101 -383 -230 -985 -174 -811
-389 -1908 -490 -2503 -34 -194 -35 -213 -35 -451 0 -258 9 -326 56 -446 38
-96 142 -175 230 -175 45 0 53 6 69 55 10 28 13 30 65 31 30 1 60 2 66 3 7 1
19 19 28 40 21 55 73 545 81 771 14 416 44 635 108 781 19 43 25 78 30 169 3
74 21 198 50 350 25 129 57 305 71 390 14 85 37 189 51 230 89 258 261 874
310 1110 15 69 47 193 72 275 125 414 202 730 267 1097 95 534 86 810 -35
1050 -119 236 -301 348 -449 276z"/>
</g>
</svg>
